<svg width="855" height="153" viewBox="0 0 855 153" fill="none" xmlns="http://www.w3.org/2000/svg">
<path d="M1.8 123L22.68 54.84C25.68 44.88 34.08 40.2 42.48 40.2C50.88 40.2 59.28 44.88 62.28 54.84L83.16 123H60.48L56.76 109.32H28.32L24.48 123H1.8ZM41.64 61.32L33.84 89.52H51.24L43.56 61.32C43.32 60.48 43.08 60.12 42.6 60.12C42.12 60.12 41.88 60.48 41.64 61.32ZM118.589 152.4C103.709 152.4 92.9091 145.8 87.3891 134.04L105.269 124.44C107.189 128.52 110.789 132.72 118.229 132.72C126.029 132.72 131.189 127.8 131.789 119.16C128.909 121.68 124.349 123.6 117.509 123.6C100.829 123.6 87.3891 110.76 87.3891 92.76C87.3891 75.36 101.669 61.2 120.389 61.2C139.589 61.2 153.389 74.52 153.389 92.88V116.64C153.389 138.24 138.389 152.4 118.589 152.4ZM120.029 103.32C126.509 103.32 131.429 98.88 131.429 92.28C131.429 85.8 126.509 81.48 120.029 81.48C113.669 81.48 108.629 85.8 108.629 92.28C108.629 98.88 113.669 103.32 120.029 103.32ZM195.975 124.8C177.255 124.8 162.975 110.4 162.975 92.88C162.975 75.48 177.255 61.08 195.975 61.08C214.695 61.08 228.975 75.48 228.975 92.88C228.975 110.4 214.695 124.8 195.975 124.8ZM195.975 104.52C202.815 104.52 207.375 99.24 207.375 93C207.375 86.64 202.815 81.36 195.975 81.36C189.135 81.36 184.575 86.64 184.575 93C184.575 99.24 189.135 104.52 195.975 104.52ZM260.217 123H238.617V89.76C238.617 73.8 247.737 61.08 267.297 61.08C271.377 61.08 275.817 61.8 278.817 63.12V83.88C275.937 82.32 272.337 81.48 269.337 81.48C263.697 81.48 260.217 84.72 260.217 90.48V123ZM313.664 124.8C296.144 124.8 284.264 110.4 284.264 92.88C284.264 75.48 298.544 61.08 317.264 61.08C336.464 61.08 350.264 74.52 350.264 92.88V123H329.864V118.56C326.024 122.52 320.624 124.8 313.664 124.8ZM317.264 104.52C324.104 104.52 328.664 99.24 328.664 93C328.664 86.64 324.104 81.36 317.264 81.36C310.424 81.36 305.864 86.64 305.864 93C305.864 99.24 310.424 104.52 317.264 104.52Z" fill="black"/>
<path d="M527.32 124.8C503.08 124.8 484.6 106.2 484.6 82.56C484.6 58.92 503.08 40.32 527.32 40.32C541.72 40.32 555.88 48 561.76 61.32L543.64 71.4C540.28 65.4 535.72 61.32 526.36 61.32C514.96 61.32 507.4 69.96 507.4 82.56C507.4 95.16 514.72 103.8 526.36 103.8C535.72 103.8 540.64 99.72 543.64 93.72L561.76 103.8C555.88 117.12 541.72 124.8 527.32 124.8ZM595.328 124.8C577.808 124.8 565.928 110.4 565.928 92.88C565.928 75.48 580.208 61.08 598.928 61.08C618.128 61.08 631.928 74.52 631.928 92.88V123H611.528V118.56C607.688 122.52 602.288 124.8 595.328 124.8ZM598.928 104.52C605.768 104.52 610.328 99.24 610.328 93C610.328 86.64 605.768 81.36 598.928 81.36C592.088 81.36 587.528 86.64 587.528 93C587.528 99.24 592.088 104.52 598.928 104.52ZM668.994 124.92C655.434 124.92 646.674 120.24 641.514 111.12L657.114 102.36C659.274 106.2 662.514 108.12 667.914 108.12C672.354 108.12 674.394 106.56 674.394 104.64C674.394 97.32 642.714 104.76 642.714 81.48C642.714 70.2 652.314 61.08 668.634 61.08C682.914 61.08 690.714 68.04 694.194 74.76L678.594 83.64C677.274 80.04 673.194 77.88 669.114 77.88C665.994 77.88 664.314 79.2 664.314 81C664.314 88.44 695.994 81.6 695.994 104.16C695.994 116.76 683.634 124.92 668.994 124.92ZM729.555 123H707.955V35.4H729.555V64.8C733.635 62.52 738.555 61.2 743.955 61.2C762.795 61.2 772.155 72.6 772.155 91.92V123L750.555 122.88V94.2C750.555 87.48 746.955 81.48 740.475 81.48C733.635 81.48 729.555 86.76 729.555 94.2V123Z" fill="black"/>
<rect x="386" y="51" width="69" height="69" rx="29" stroke="black" stroke-width="6"/>
<path d="M407 92L408.424 87.7282C410.162 82.513 417.569 82.5991 419.186 87.8533C420.685 92.7257 427.361 93.2783 429.641 88.7186L435 78" stroke="black" stroke-width="6" stroke-linecap="round" stroke-linejoin="round"/>
</svg>
