<svg width="251" height="154" viewBox="0 0 251 154" fill="none" xmlns="http://www.w3.org/2000/svg">
<rect x="179" y="47" width="69" height="69" rx="29" stroke="black" stroke-width="6"/>
<path d="M200 88L201.424 83.7282C203.162 78.513 210.569 78.5991 212.186 83.8533C213.685 88.7257 220.361 89.2783 222.641 84.7186L228 74" stroke="black" stroke-width="6" stroke-linecap="round" stroke-linejoin="round"/>
<path d="M1.8 123L22.68 54.84C25.68 44.88 34.08 40.2 42.48 40.2C50.88 40.2 59.28 44.88 62.28 54.84L83.16 123H60.48L56.76 109.32H28.32L24.48 123H1.8ZM41.64 61.32L33.84 89.52H51.24L43.56 61.32C43.32 60.48 43.08 60.12 42.6 60.12C42.12 60.12 41.88 60.48 41.64 61.32ZM128.937 124.8C104.697 124.8 86.2172 106.2 86.2172 82.56C86.2172 58.92 104.697 40.32 128.937 40.32C143.337 40.32 157.497 48 163.377 61.32L145.257 71.4C141.897 65.4 137.337 61.32 127.977 61.32C116.577 61.32 109.017 69.96 109.017 82.56C109.017 95.16 116.337 103.8 127.977 103.8C137.337 103.8 142.257 99.72 145.257 93.72L163.377 103.8C157.497 117.12 143.337 124.8 128.937 124.8Z" fill="black"/>
</svg>
