<svg width="251" height="154" viewBox="0 0 251 154" fill="none" xmlns="http://www.w3.org/2000/svg">
<rect x="179" y="47" width="69" height="69" rx="29" stroke="white" stroke-width="6"/>
<path d="M200 88L201.424 83.7282C203.162 78.513 210.569 78.5991 212.186 83.8533C213.685 88.7257 220.361 89.2783 222.641 84.7186L228 74" stroke="white" stroke-width="6" stroke-linecap="round" stroke-linejoin="round"/>
<mask id="path-3-outside-1_1177_2" maskUnits="userSpaceOnUse" x="0" y="39" width="165" height="87" fill="black">
<rect fill="white" y="39" width="165" height="87"/>
<path d="M1.8 123L22.68 54.84C25.68 44.88 34.08 40.2 42.48 40.2C50.88 40.2 59.28 44.88 62.28 54.84L83.16 123H60.48L56.76 109.32H28.32L24.48 123H1.8ZM41.64 61.32L33.84 89.52H51.24L43.56 61.32C43.32 60.48 43.08 60.12 42.6 60.12C42.12 60.12 41.88 60.48 41.64 61.32ZM128.937 124.8C104.697 124.8 86.2172 106.2 86.2172 82.56C86.2172 58.92 104.697 40.32 128.937 40.32C143.337 40.32 157.497 48 163.377 61.32L145.257 71.4C141.897 65.4 137.337 61.32 127.977 61.32C116.577 61.32 109.017 69.96 109.017 82.56C109.017 95.16 116.337 103.8 127.977 103.8C137.337 103.8 142.257 99.72 145.257 93.72L163.377 103.8C157.497 117.12 143.337 124.8 128.937 124.8Z"/>
</mask>
<path d="M1.8 123L22.68 54.84C25.68 44.88 34.08 40.2 42.48 40.2C50.88 40.2 59.28 44.88 62.28 54.84L83.16 123H60.48L56.76 109.32H28.32L24.48 123H1.8ZM41.64 61.32L33.84 89.52H51.24L43.56 61.32C43.32 60.48 43.08 60.12 42.6 60.12C42.12 60.12 41.88 60.48 41.64 61.32ZM128.937 124.8C104.697 124.8 86.2172 106.2 86.2172 82.56C86.2172 58.92 104.697 40.32 128.937 40.32C143.337 40.32 157.497 48 163.377 61.32L145.257 71.4C141.897 65.4 137.337 61.32 127.977 61.32C116.577 61.32 109.017 69.96 109.017 82.56C109.017 95.16 116.337 103.8 127.977 103.8C137.337 103.8 142.257 99.72 145.257 93.72L163.377 103.8C157.497 117.12 143.337 124.8 128.937 124.8Z" fill="white"/>
<path d="M1.8 123L0.843858 122.707L0.447793 124H1.8V123ZM22.68 54.84L23.6362 55.1329L23.6375 55.1284L22.68 54.84ZM62.28 54.84L61.3225 55.1284L61.3239 55.1329L62.28 54.84ZM83.16 123V124H84.5122L84.1161 122.707L83.16 123ZM60.48 123L59.515 123.262L59.7156 124H60.48V123ZM56.76 109.32L57.725 109.058L57.5244 108.32H56.76V109.32ZM28.32 109.32V108.32H27.5621L27.3572 109.05L28.32 109.32ZM24.48 123V124H25.2379L25.4428 123.27L24.48 123ZM41.64 61.32L40.6784 61.0453L40.6762 61.0534L41.64 61.32ZM33.84 89.52L32.8762 89.2534L32.5259 90.52H33.84V89.52ZM51.24 89.52V90.52H52.5488L52.2049 89.2572L51.24 89.52ZM43.56 61.32L44.5249 61.0572L44.5215 61.0453L43.56 61.32ZM2.75614 123.293L23.6361 55.1329L21.7239 54.5471L0.843858 122.707L2.75614 123.293ZM23.6375 55.1284C26.4923 45.6504 34.4557 41.2 42.48 41.2V39.2C33.7043 39.2 24.8677 44.1096 21.7225 54.5516L23.6375 55.1284ZM42.48 41.2C50.5043 41.2 58.4677 45.6504 61.3225 55.1284L63.2375 54.5516C60.0923 44.1096 51.2557 39.2 42.48 39.2V41.2ZM61.3239 55.1329L82.2039 123.293L84.1161 122.707L63.2361 54.5471L61.3239 55.1329ZM83.16 122H60.48V124H83.16V122ZM61.445 122.738L57.725 109.058L55.795 109.582L59.515 123.262L61.445 122.738ZM56.76 108.32H28.32V110.32H56.76V108.32ZM27.3572 109.05L23.5172 122.73L25.4428 123.27L29.2828 109.59L27.3572 109.05ZM24.48 122H1.8V124H24.48V122ZM40.6762 61.0534L32.8762 89.2534L34.8038 89.7866L42.6038 61.5866L40.6762 61.0534ZM33.84 90.52H51.24V88.52H33.84V90.52ZM52.2049 89.2572L44.5249 61.0572L42.5951 61.5828L50.2751 89.7828L52.2049 89.2572ZM44.5215 61.0453C44.3975 60.6112 44.2366 60.1515 43.9626 59.7953C43.6289 59.3614 43.1595 59.12 42.6 59.12V61.12C42.5908 61.12 42.5382 61.1171 42.4715 61.0838C42.406 61.051 42.3765 61.0136 42.3774 61.0147C42.3826 61.0215 42.4108 61.0618 42.4542 61.1652C42.4969 61.2669 42.5444 61.4056 42.5985 61.5947L44.5215 61.0453ZM42.6 59.12C42.0405 59.12 41.5711 59.3614 41.2374 59.7953C40.9634 60.1515 40.8025 60.6112 40.6785 61.0453L42.6015 61.5947C42.6556 61.4056 42.7031 61.2669 42.7458 61.1652C42.7892 61.0618 42.8174 61.0215 42.8226 61.0147C42.8235 61.0136 42.794 61.051 42.7285 61.0838C42.6618 61.1171 42.6092 61.12 42.6 61.12V59.12ZM163.377 61.32L163.863 62.1939L164.66 61.7505L164.292 60.9162L163.377 61.32ZM145.257 71.4L144.385 71.8886L144.872 72.7586L145.743 72.2739L145.257 71.4ZM145.257 93.72L145.743 92.8461L144.83 92.3381L144.363 93.2728L145.257 93.72ZM163.377 103.8L164.292 104.204L164.66 103.369L163.863 102.926L163.377 103.8ZM128.937 123.8C105.244 123.8 87.2172 105.642 87.2172 82.56H85.2172C85.2172 106.758 104.15 125.8 128.937 125.8V123.8ZM87.2172 82.56C87.2172 59.4778 105.244 41.32 128.937 41.32V39.32C104.15 39.32 85.2172 58.3622 85.2172 82.56H87.2172ZM128.937 41.32C143.014 41.32 156.77 48.8286 162.462 61.7238L164.292 60.9162C158.224 47.1714 143.66 39.32 128.937 39.32V41.32ZM162.891 60.4461L144.771 70.5261L145.743 72.2739L163.863 62.1939L162.891 60.4461ZM146.13 70.9114C144.405 67.8308 142.326 65.1609 139.411 63.2709C136.488 61.3754 132.809 60.32 127.977 60.32V62.32C132.506 62.32 135.787 63.3046 138.323 64.9491C140.868 66.5991 142.75 68.9692 144.385 71.8886L146.13 70.9114ZM127.977 60.32C122.009 60.32 116.99 62.5897 113.474 66.5512C109.968 70.5019 108.017 76.063 108.017 82.56H110.017C110.017 76.457 111.847 71.3981 114.97 67.8788C118.084 64.3703 122.546 62.32 127.977 62.32V60.32ZM108.017 82.56C108.017 89.0488 109.903 94.6109 113.381 98.5654C116.871 102.533 121.893 104.8 127.977 104.8V102.8C122.421 102.8 117.963 100.747 114.883 97.2446C111.791 93.7291 110.017 88.6711 110.017 82.56H108.017ZM127.977 104.8C132.806 104.8 136.573 103.746 139.54 101.853C142.506 99.9614 144.594 97.283 146.152 94.1672L144.363 93.2728C142.921 96.157 141.049 98.5186 138.464 100.167C135.882 101.814 132.508 102.8 127.977 102.8V104.8ZM144.771 94.5939L162.891 104.674L163.863 102.926L145.743 92.8461L144.771 94.5939ZM162.462 103.396C156.77 116.291 143.014 123.8 128.937 123.8V125.8C143.66 125.8 158.224 117.949 164.292 104.204L162.462 103.396Z" fill="white" mask="url(#path-3-outside-1_1177_2)"/>
</svg>
